<svg id="Layer_1" data-name="Layer 1" xmlns="http://www.w3.org/2000/svg" viewBox="0 0 115.15 133.42"><defs><style>.cls-1{fill:#fff;fill-rule:evenodd;}.cls-1,.cls-2,.cls-4{stroke:#aaa;stroke-linecap:round;stroke-miterlimit:10;}.cls-1,.cls-2{stroke-width:3px;}.cls-2,.cls-4{fill:none;}.cls-3{fill:#aaa;}.cls-4{stroke-width:5px;}</style></defs><g id="Layer_2" data-name="Layer 2"><g id="Icons"><path class="cls-1" d="M57.45,1.5S91.93,5.69,113.6,11.75c0,0-1.4,33.78-4.43,52.89-2.79,19.1-5.35,25.85-16.77,37S57.45,131.5,57.45,131.5s-23.29-18.64-34.71-29.82-14-17.94-17-37c-2.8-19.1-4.19-52.89-4.19-52.89C23.21,5.69,57.46,1.5,57.46,1.5Z" transform="translate(0)"/><path class="cls-2" d="M52.74,42.65h25.4a7.73,7.73,0,0,1,7.73,7.73h0V83a7.73,7.73,0,0,1-7.73,7.73H37A7.74,7.74,0,0,1,29.27,83V50.38A7.74,7.74,0,0,1,37,42.65h6.41V29.91a8.5,8.5,0,0,1,8.49-8.48H63.23a8.5,8.5,0,0,1,8.49,8.48" transform="translate(0)"/><circle class="cls-3" cx="57.57" cy="60.92" r="7.07"/><line class="cls-4" x1="57.57" y1="66.73" x2="57.57" y2="76.38"/></g></g></svg>